<svg width="32" height="32" viewBox="0 0 32 32" fill="none" xmlns="http://www.w3.org/2000/svg">
<rect width="32" height="32" rx="8.329" fill="#441FDA"/>
<path d="M11.4468 25.947C11.4468 26.1833 11.2552 26.3748 11.0188 26.3748H10.0005C8.1093 26.3748 6.57617 24.8425 6.57617 22.9523V21.8828C6.57617 21.6465 6.76781 21.455 7.00421 21.455H11.0188C11.2552 21.455 11.4468 21.6465 11.4468 21.8828V25.947Z" fill="white"/>
<path d="M19.5163 5.62598C23.0623 5.62598 25.9369 8.49904 25.9369 12.0431C25.9369 13.4158 25.5056 14.6877 24.7711 15.7311C24.6577 15.8922 24.6577 16.1086 24.7711 16.2697C25.5056 17.3131 25.9369 18.585 25.9369 19.9577C25.9369 23.5018 23.0623 26.3748 19.5163 26.3748H14.8712C14.6348 26.3748 14.4431 26.1833 14.4431 25.947V21.8828C14.4431 21.6465 14.6348 21.455 14.8712 21.455H19.7303C20.5577 21.455 21.2284 20.7846 21.2284 19.9577C21.2284 19.1307 20.5577 18.4603 19.7303 18.4603H7.00421C6.76781 18.4603 6.57617 18.2688 6.57617 18.0325V13.9683C6.57617 13.732 6.76781 13.5405 7.00421 13.5405H19.7303C20.5577 13.5405 21.2284 12.8701 21.2284 12.0431C21.2284 11.2162 20.5577 10.5458 19.7303 10.5458H14.8712C14.6348 10.5458 14.4431 10.3543 14.4431 10.118V6.05379C14.4431 5.81751 14.6348 5.62598 14.8712 5.62598L19.5163 5.62598Z" fill="white"/>
<path d="M11.4468 10.118C11.4468 10.3543 11.2552 10.5458 11.0188 10.5458H7.00421C6.76781 10.5458 6.57617 10.3543 6.57617 10.118V9.04847C6.57617 7.15828 8.1093 5.62598 10.0005 5.62598H11.0188C11.2552 5.62598 11.4468 5.81751 11.4468 6.05379V10.118Z" fill="white"/>
</svg>
